HIERARCHY
ROOT Hips
{
  OFFSET 0 0 0
  CHANNELS 6 Xposition Yposition Zposition Zrotation Yrotation Xrotation
  JOINT LeftThigh
  {
    OFFSET 8.409438 0 -5.917753
    CHANNELS 3 Zrotation Yrotation Xrotation
    JOINT LeftLeg
    {
      OFFSET 0 0 -42.358652
      CHANNELS 3 Zrotation Yrotation Xrotation
      JOINT LeftFoot
      {
        OFFSET 0 0 -39.357303
        CHANNELS 3 Zrotation Yrotation Xrotation
      }
    }
  }
  JOINT RightThigh
  {
    OFFSET -8.409438 0 -5.917753
    CHANNELS 3 Zrotation Yrotation Xrotation
    JOINT RightLeg
    {
      OFFSET 0 0 -42.358652
      CHANNELS 3 Zrotation Yrotation Xrotation
      JOINT RightFoot
      {
        OFFSET 0 0 -39.357303
        CHANNELS 3 Zrotation Yrotation Xrotation
      }
    }
  }
  JOINT SpineLow
  {
    OFFSET 0 0 4.719101
    CHANNELS 3 Zrotation Yrotation Xrotation
    JOINT SpineMid
    {
      OFFSET 0 0 12.899191
      CHANNELS 3 Zrotation Yrotation Xrotation
      JOINT Chest
      {
        OFFSET 0 0 12.899191
        CHANNELS 3 Zrotation Yrotation Xrotation
        JOINT LeftShoulder
        {
          OFFSET 7.550562 1.41573 9.438202
          CHANNELS 3 Zrotation Yrotation Xrotation
          JOINT LeftArm
          {
            OFFSET 9.155056 0 4.247191
            CHANNELS 3 Zrotation Yrotation Xrotation
            JOINT LeftForearm
            {
              OFFSET 0 0 25.771955
              CHANNELS 3 Zrotation Yrotation Xrotation
              JOINT LeftHand
              {
                OFFSET 0 0 25.197169
                CHANNELS 3 Zrotation Yrotation Xrotation
              }
            }
          }
        }
        JOINT RightShoulder
        {
          OFFSET -7.550562 1.41573 9.438202
          CHANNELS 3 Zrotation Yrotation Xrotation
          JOINT RightArm
          {
            OFFSET -9.155056 0 4.247191
            CHANNELS 3 Zrotation Yrotation Xrotation
            JOINT RightForearm
            {
              OFFSET 0 0 -25.771955
              CHANNELS 3 Zrotation Yrotation Xrotation
              JOINT RightHand
              {
                OFFSET 0 0 -25.197169
                CHANNELS 3 Zrotation Yrotation Xrotation
              }
            }
          }
        }
        JOINT Neck
        {
          OFFSET 0 0 15.101124
          CHANNELS 3 Zrotation Yrotation Xrotation
          JOINT Head
          {
            OFFSET 0 0 11.325843
            CHANNELS 3 Zrotation Yrotation Xrotation
            End Site
            {
              OFFSET 0 0 14.157303
            }
          }
        }
      }
    }
  }
}
MOTION
Frames: 10
Frame Time: 0.0
0.0  93.25843  0.0  16.871343  -9.455804  -119.593356  38.521369  -10.168495  -90.71897  -1.174851  15.200811  49.371463  0.489781  -9.160927  1.582957  -10.719424  9.456848  2.297494  13.60779  10.271043  28.352791  11.026188  5.409852  3.616245  0.881418  1.133517  3.281107  2.559441  2.971814  9.014175  2.559441  2.971814  9.014175  -15.97631  28.069012  6.549711  -155.335532  62.781248  -115.129435  -31.371044  17.486092  87.451658  62.42499  -33.07838  -8.315104  1.150356  -8.38271  17.816725  104.71032  41.090672  45.812634  0.007878  -21.498794  -123.259446  53.842991  5.557776  -3.906536  4.296763  5.597553  13.476273  3.097984  4.295549  10.060298  
0.0  93.25843  0.0  16.678017  -9.118402  -119.541974  37.637206  -11.797442  -89.26499  -2.145321  13.402634  40.005141  -0.72739  -8.988611  2.079645  -10.112929  9.0034  2.738431  13.176594  10.382787  28.344339  10.930939  5.494369  3.634368  0.881172  1.10739  3.296779  2.555812  2.899968  9.055798  2.555812  2.899968  9.055797  -16.216732  28.099829  6.548668  -155.083338  62.792087  -114.977651  -31.819867  17.432407  86.738793  61.47  -33.364742  -7.759631  1.082589  -8.253576  17.70863  104.335745  41.457072  45.445654  0.23493  -21.831883  -123.376186  53.59851  5.587483  -3.932223  4.139521  5.764998  13.41446  2.976769  4.417278  10.013742  
0.0  93.25843  0.0  16.372313  -8.900586  -119.636688  37.363926  -16.2932  -88.497649  -1.235901  13.138434  33.363344  -0.176469  -8.999828  2.102508  -10.049075  8.668082  3.124659  12.993401  10.414184  28.348406  10.877516  5.583359  3.660239  0.884974  1.066411  3.334907  2.562037  2.786164  9.158304  2.562037  2.786164  9.158304  -16.385494  28.045541  6.59927  -155.004273  62.744649  -114.8065  -31.959946  17.627429  86.476685  61.338603  -33.405367  -7.806839  1.05842  -8.115534  17.680646  104.154822  41.904408  45.10984  0.34017  -22.138381  -123.444514  53.406846  5.576405  -3.930606  4.04195  5.840593  13.348531  2.902484  4.471393  9.964505  
0.0  93.25843  0.0  16.143356  -8.862861  -119.916806  37.622446  -22.469306  -88.461862  1.843415  12.930554  29.51211  1.03325  -8.609267  2.275167  -10.424889  8.608364  3.397138  12.978781  10.48963  28.458021  10.826753  5.68446  3.60112  0.913792  1.030128  3.39814  2.638041  2.680611  9.330638  2.63804  2.680611  9.330638  -16.404992  27.894572  6.72094  -155.070882  62.675648  -114.693034  -32.313873  17.392238  85.9273  60.695647  -33.530745  -7.438266  1.222652  -8.063888  17.785482  103.800756  42.76072  44.876022  0.58127  -22.438598  -123.576098  53.27321  5.527374  -3.885459  3.944047  5.90123  13.275982  2.828372  4.514251  9.910474  
0.0  93.25843  0.0  16.000582  -8.884831  -120.228934  38.893983  -27.65426  -89.277552  6.15411  13.505568  28.688873  1.457747  -8.516512  2.486829  -11.200022  8.788855  3.428428  13.141091  10.585555  28.696334  11.116295  5.669454  3.617516  0.954113  0.996953  3.451331  2.745294  2.582173  9.476002  2.745294  2.582173  9.476002  -16.469675  27.775626  6.835213  -155.300967  62.534982  -114.789592  -32.333719  17.353753  85.80489  60.621823  -33.515463  -7.477635  1.217059  -7.9822  17.894718  104.037775  43.355587  44.8356  0.360272  -22.720266  -123.564578  53.21867  5.470722  -3.816723  3.828567  5.930706  13.261992  2.741251  4.533758  9.900805  
0.0  93.25843  0.0  15.972973  -8.981412  -120.58007  38.64609  -29.800274  -89.238296  8.666521  13.051319  30.023203  1.323355  -8.71893  2.570481  -12.045575  9.111586  3.348932  13.565362  10.577653  29.058967  11.387104  5.659305  3.622766  0.981232  0.974537  3.478785  2.817018  2.515957  9.550948  2.817018  2.515957  9.550948  -16.353082  27.643995  6.969549  -155.986552  62.592246  -115.229285  -32.758079  17.129309  85.404427  60.350409  -33.558183  -7.28816  1.383543  -7.961316  18.123768  104.338391  43.985274  44.898868  0.006743  -23.019689  -123.465153  53.130386  5.346076  -3.865524  3.774709  5.988564  13.349465  2.698711  4.576574  9.966329  
0.0  93.25843  0.0  15.924948  -8.940727  -120.804491  38.90019  -28.89988  -89.394672  8.828628  13.472504  33.428627  1.259803  -8.766744  2.53938  -12.94971  9.421291  3.137461  13.97759  10.525863  29.402794  11.708973  5.612982  3.651714  0.992958  0.956442  3.497807  2.847031  2.464086  9.602469  2.847031  2.464085  9.602469  -16.320071  27.504947  6.936963  -156.797091  62.489595  -115.995011  -32.73786  17.099701  85.427255  60.354911  -33.582196  -7.327795  1.461955  -8.023136  18.17088  104.703085  44.505912  45.049375  -0.230267  -23.382929  -123.460596  53.100029  5.272417  -3.909753  3.703291  6.039101  13.437356  2.643155  4.613499  10.032408  
0.0  93.25843  0.0  15.851212  -8.876726  -121.012936  39.553486  -25.581936  -88.922968  6.502183  14.908088  37.653206  1.53356  -8.952675  2.44014  -13.505745  9.617594  3.130154  14.250362  10.396471  29.630543  12.603444  5.587778  3.935249  0.998249  0.938216  3.535327  2.860087  2.411953  9.704315  2.860087  2.411953  9.704315  -16.413249  27.361735  6.667736  -157.813687  62.692654  -116.798375  -32.968746  16.974966  85.280206  60.377946  -33.638452  -7.35424  1.55585  -8.192229  17.973049  105.102822  44.758721  45.106198  -0.67834  -23.77575  -123.284594  53.000429  5.1912  -4.093857  3.617897  6.09525  13.469576  2.57752  4.653952  10.056866  
0.0  93.25843  0.0  15.770079  -8.630471  -121.042312  39.323923  -21.732903  -87.57351  3.663764  16.127362  42.06114  2.049496  -9.274524  2.446022  -13.734584  9.72998  3.170801  14.230152  10.240439  29.708745  12.677086  5.553302  3.970026  0.965153  0.940348  3.538857  2.770252  2.422477  9.712922  2.770252  2.422476  9.712922  -16.406414  27.285696  6.460576  -158.552757  62.779713  -117.569521  -32.90182  16.873549  85.348931  60.383158  -33.677439  -7.342678  1.764326  -8.462281  17.806032  104.874054  45.257496  44.965544  -0.355104  -24.279372  -123.427955  52.974305  5.170187  -4.278761  3.592338  6.117521  13.551046  2.557041  4.67061  10.117961  
0.0  93.25843  0.0  15.617394  -8.276785  -120.950648  38.862441  -17.692169  -86.077898  0.371601  17.194943  46.842934  2.899105  -9.302223  2.413963  -13.613037  9.701744  3.301661  13.859817  10.111959  29.646045  12.694601  5.460275  3.978651  0.915991  0.938677  3.530992  2.635628  2.425477  9.689628  2.635628  2.425477  9.689628  -16.423885  27.312637  6.252676  -159.158101  62.971006  -118.169203  -32.884598  16.587122  85.225172  60.201149  -33.768293  -7.179036  2.010867  -8.694597  17.666804  104.217815  45.866046  44.504484  0.226646  -24.833026  -123.611439  52.87556  5.172998  -4.468137  3.552956  6.11701  13.625406  2.526796  4.669812  10.174072  
